Coordinates
version=1
nRows=5
nColumns=40
inDegrees=yes

Units are S.I. units (second, meters, Newtons, ...)
Angles are in degrees.

endheader
time	pelvis_tilt	pelvis_list	pelvis_rotation	pelvis_tx	pelvis_ty	pelvis_tz	hip_flexion_r	hip_adduction_r	hip_rotation_r	knee_angle_r	knee_angle_r_beta	ankle_angle_r	subtalar_angle_r	mtp_angle_r	hip_flexion_l	hip_adduction_l	hip_rotation_l	knee_angle_l	knee_angle_l_beta	ankle_angle_l	subtalar_angle_l	mtp_angle_l	lumbar_extension	lumbar_bending	lumbar_rotation	arm_flex_r	arm_add_r	arm_rot_r	elbow_flex_r	pro_sup_r	wrist_flex_r	wrist_dev_r	arm_flex_l	arm_add_l	arm_rot_l	elbow_flex_l	pro_sup_l	wrist_flex_l	wrist_dev_l
     34.49000000	     -5.44235652	     -8.13493410	      2.03559813	      1.02366502	      0.91612506	      0.50612355	     -1.88030960	      7.76261798	    -17.90484167	      6.94763692	      6.94763692	     16.55511655	     12.55756886	     -3.82411313	     36.32743666	    -12.27768580	     -0.79830157	     20.24855194	     20.24855194	      5.76554993	     -9.05196915	     14.49568090	    -11.13116503	      8.68672669	      6.53224214	     47.94371406	    -11.72545156	      3.03562167	     85.25340508	     44.35724635	      0.00000000	      0.00000000	    -21.65592651	     -6.86373657	      0.25156241	     24.49147619	     45.93451759	      0.00000000	      0.00000000
     34.50157143	     -5.55165148	     -8.14242878	      1.75657558	      1.02464013	      0.91460833	      0.50456507	     -2.32537478	      7.59998370	    -17.68601902	      7.20668000	      7.20668000	     17.50823647	     12.77307069	     -2.57756632	     35.79096346	    -12.14925866	     -1.11372403	     20.21043939	     20.21043939	      4.29658361	     -9.95319732	     12.13344258	    -10.84065398	      8.61268365	      7.14832379	     48.32836183	    -12.09586201	      2.96447447	     88.85318637	     44.34047545	      0.00000000	      0.00000000	    -22.73733634	     -7.24645049	      2.46059208	     25.58656934	     45.49531036	      0.00000000	      0.00000000
     34.51314286	     -5.67228092	     -8.07397068	      1.49109743	      1.02550918	      0.91306221	      0.50285374	     -2.69547602	      7.33773668	    -17.35073530	      7.51654023	      7.51654023	     18.03807792	     12.67245503	     -2.60623143	     35.49915289	    -11.95797927	     -1.25370292	     20.75485560	     20.75485560	      3.73536097	    -10.71634603	     12.01379131	    -10.51022862	      8.47432502	      6.82581277	     49.35217977	    -11.37271216	      3.25635990	     90.66405293	     44.28686617	      0.00000000	      0.00000000	    -23.61797217	     -7.01155180	      2.69315409	     25.40661944	     45.44033079	      0.00000000	      0.00000000
     34.52471429	     -5.84681066	     -7.95571874	      1.20739806	      1.02641735	      0.91154269	      0.50106007	     -2.89700626	      6.98273299	    -16.92954649	      8.06503124	      8.06503124	     18.86174986	     12.40859826	     -1.84226598	     35.17957762	    -11.67667114	     -1.10317683	     21.16757641	     21.16757641	      2.35806842	    -12.02736559	     10.35521496	    -10.19269786	      8.22810860	      7.15940783	     49.56350018	    -11.79485114	      3.73332073	     94.31872806	     44.20844439	      0.00000000	      0.00000000	    -24.40086995	     -7.11809182	      3.37070949	     26.18767532	     45.31516739	      0.00000000	      0.00000000
     34.53628571	     -5.96182633	     -7.81688220	      0.96228554	      1.02727859	      0.91014044	      0.49914454	     -3.09592321	      6.58463087	    -16.54866488	      8.70166692	      8.70166692	     19.44839690	     12.08206863	     -1.77497155	     35.06742720	    -11.44716902	     -1.01183294	     22.10642169	     22.10642169	      1.82248013	    -12.77048947	      9.87585710	     -9.90603910	      7.98813319	      6.78071713	     50.24536257	    -11.13665544	      3.98753290	     96.24274055	     44.15631213	      0.00000000	      0.00000000	    -24.98722356	     -6.88361486	      3.62517766	     26.03710147	     45.26740137	      0.00000000	      0.00000000
